<?xml version="1.0" encoding="UTF-8" standalone="no"?>
<svg
   xmlns:dc="http://purl.org/dc/elements/1.1/"
   xmlns:cc="http://creativecommons.org/ns#"
   xmlns:rdf="http://www.w3.org/1999/02/22-rdf-syntax-ns#"
   xmlns:svg="http://www.w3.org/2000/svg"
   xmlns="http://www.w3.org/2000/svg"
   id="svg28"
   version="1.1"
   fill="none"
   viewBox="0 0 745 213"
   height="213"
   width="745">
  <metadata
     id="metadata34">
    <rdf:RDF>
      <cc:Work
         rdf:about="">
        <dc:format>image/svg+xml</dc:format>
        <dc:type
           rdf:resource="http://purl.org/dc/dcmitype/StillImage" />
      </cc:Work>
    </rdf:RDF>
  </metadata>
  <defs
     id="defs32" />
  <path
     id="path2"
     fill="#FC5656"
     d="M159.852 52.304C145.752 38.204 130.69 47.33 121.264 56.756L32.22 145.803C22.794 155.228 12.928 169.549 27.768 184.387C42.608 199.23 56.929 189.362 66.353 179.936L155.399 90.891C164.825 81.464 173.951 66.402 159.852 52.304Z" />
  <path
     id="path4"
     fill="#FC5656"
     d="M74.78 48.657L93.635 67.511L112.827 48.319C114.13 47.013 115.453 45.801 116.784 44.658C114.774 34.518 108.988 25.351 93.626 25.351C78.235 25.351 72.456 34.554 70.457 44.716C71.894 45.959 73.328 47.205 74.78 48.657Z" />
  <path
     id="path6"
     fill="#FC5656"
     d="M112.816 188.71L93.636 169.529L74.791 188.372C73.36 189.804 71.936 191.112 70.518 192.341C72.679 202.678 78.795 212.146 93.628 212.146C108.5 212.146 114.608 202.627 116.755 192.257C115.436 191.122 114.116 190.009 112.816 188.71Z" />
  <path
     id="path8"
     fill="#FC5656"
     d="M66.783 94.364H30.433C17.105 94.364 0 98.563 0 118.501C0 133.378 9.522 139.487 19.894 141.633C21.122 140.215 66.783 94.364 66.783 94.364Z" />
  <path
     id="path10"
     fill="#FC5656"
     d="M167.435 95.332C166.285 96.67 120.528 142.637 120.528 142.637H156.362C169.691 142.637 186.795 139.488 186.795 118.501C186.795 103.112 177.595 97.33 167.435 95.332Z" />
  <path
     id="path12"
     fill="#FC5656"
     d="M78.693 82.432L85.187 75.938L66.344 57.092C56.917 47.667 42.598 37.8 27.758 52.64C16.876 63.522 19.293 74.113 25.065 82.711C26.823 82.581 78.693 82.432 78.693 82.432Z" />
  <path
     id="path14"
     fill="#FC5656"
     d="M108.571 154.569L102.06 161.08L121.254 180.272C130.68 189.699 145.742 198.823 159.84 184.725C170.36 174.204 167.946 163.154 162.13 154.302C160.258 154.437 108.571 154.569 108.571 154.569Z" />
</svg>
